<svg width="74" height="74" viewBox="0 0 74 74" fill="none" xmlns="http://www.w3.org/2000/svg">
<path d="M69.1 0.899989C66.9375 0.806238 64.9125 2.24374 64.35 4.39999L62.15 12.95L56.15 21.6L46.6 23.75C44.9813 24.1187 43.5 24.9562 42.4 26.2L35.8 33.55C34.9625 34.4812 34.325 35.6375 34 36.85L31.75 45.35C31.1375 47.6312 32.475 50.0187 34.75 50.65C37 51.275 39.375 49.9375 40.05 47.7L42.3 40.25L45.85 36.7C45.8188 37.6625 46.0563 38.3 45.85 39.3C45.4125 41.4562 44.75 43.25 44.75 43.25L38.55 55.2C38.2125 55.85 37.95 56.5437 37.8 57.25L35.55 68.1C34.9313 71.0375 37.2 73.9 40.2 73.9H40.7C42.9625 73.9 44.95 72.2625 45.4 70.05L47.5 59.7L52.85 50.1L57.2 55.75L58.75 69.65C59.0188 72.0562 61.0813 73.9 63.5 73.9C66.3063 73.9 68.5375 71.3937 68.25 68.6L66.75 53.8C66.6563 52.9 66.3875 52.0187 66 51.2L61.45 41.6C61.7938 40.65 63.5 35.5375 62.9 29.8L70.4 17.15C70.4625 17.0375 70.5125 16.925 70.55 16.8L73.4 6.84999C74.125 4.32499 72.6 1.68749 70.05 1.04999C69.7438 0.974989 69.4063 0.91249 69.1 0.899989ZM27.8 1.39999C27.2125 1.41249 26.6125 1.53749 26.05 1.79999C23.9438 2.77499 22.9375 5.24374 23.8 7.39999L26.6 14.5L22.05 22.6L14.4 23.65L9.6 18.15L9.85 15.95C10.1375 19.65 13.2313 22.6 17 22.6C20.9563 22.6 24.2 19.3562 24.2 15.4C24.2 11.4437 20.9563 8.19999 17 8.19999C13.8125 8.19999 11.0875 10.3125 10.15 13.2L10.6 9.44999C10.8938 6.94999 8.9625 4.68124 6.45 4.54999H6.1C3.7875 4.43124 1.74375 6.14374 1.5 8.44999L0.349999 19.2C0.1875 20.7125 0.631249 22.1875 1.55 23.4L9.3 33.65L6.5 39.85C5.3625 42.3562 4.9125 45.1125 5.2 47.85L7.45 69.35C7.7125 71.85 9.8375 73.8 12.35 73.8C15.2125 73.8 17.4875 71.3062 17.25 68.45L15.65 49.2L15.85 49.05L20.85 56.05L18.3 68C17.6625 70.9562 19.975 73.8 23 73.8C25.175 73.8 27.0562 72.3125 27.6 70.2L31 57.15C31.4 55.6 31.2 53.9687 30.45 52.55L25.1 42.4L27.65 31L35.35 18.1C36.1813 16.7062 36.3563 15.0062 35.75 13.5L31.95 4.14999C31.4875 2.99374 30.5813 2.12499 29.5 1.69999C28.9625 1.48749 28.3875 1.38749 27.8 1.39999ZM68.65 4.09999C68.8375 4.07499 69.05 4.09999 69.25 4.14999C70.0813 4.35624 70.5375 5.17499 70.3 5.99999L67.45 15.9L59.95 28.55C59.75 28.8625 59.6563 29.2312 59.7 29.6C60.45 34.95 58.25 41.2 58.25 41.2C58.0938 41.6062 58.1125 42.0562 58.3 42.45L63.1 52.55C63.3313 53.0437 63.4938 53.6062 63.55 54.15L65.05 68.95C65.15 69.9062 64.4625 70.7 63.5 70.7C62.6813 70.7 62.0438 70.1125 61.95 69.3L60.3 54.9C60.275 54.6125 60.1688 54.3375 60 54.1L53.95 46.25C53.6313 45.8062 53.1063 45.55 52.5563 45.5812C52.0125 45.6125 51.5188 45.9187 51.25 46.4L44.6 58.3C44.525 58.4437 44.475 58.5937 44.45 58.75L42.25 69.4C42.1 70.1437 41.4563 70.7 40.7 70.7H40.2C39.1625 70.7 38.4375 69.8187 38.65 68.8L40.95 57.9C41.0438 57.4687 41.2 57.0312 41.4 56.65L47.7 44.5C47.7375 44.4375 47.7688 44.3687 47.8 44.3C47.8 44.3 48.5125 42.3562 49 39.95C49.4875 37.5437 49.95 34.7312 48.8 32.35C48.575 31.8875 48.1438 31.5625 47.6375 31.475C47.1375 31.3875 46.6188 31.5437 46.25 31.9L39.8 38.2C39.6063 38.3937 39.4688 38.6375 39.4 38.9L37 46.8C36.8188 47.4062 36.2063 47.7187 35.6 47.55C34.9875 47.3812 34.6813 46.7687 34.85 46.15L37.1 37.65C37.2938 36.925 37.6438 36.2625 38.15 35.7L44.8 28.35C44.8 28.3312 44.8 28.3187 44.8 28.3C45.4563 27.5625 46.3313 27.0687 47.3 26.85L57.45 24.55C57.8563 24.4687 58.2125 24.2375 58.45 23.9L64.95 14.5C65.0688 14.3312 65.15 14.15 65.2 13.95L67.45 5.19999C67.6063 4.59374 68.0813 4.18124 68.65 4.09999ZM27.9 4.59999C28.375 4.58749 28.8 4.86249 29 5.34999L32.75 14.7C32.9813 15.2812 32.9188 15.9125 32.6 16.45L24.75 29.6C24.6625 29.7375 24.5938 29.8875 24.55 30.05L21.8 42.25C21.7188 42.625 21.7688 43.0125 21.95 43.35L27.65 54.05C28.025 54.7562 28.1 55.575 27.9 56.35L24.5 69.4C24.3125 70.1125 23.7375 70.6 23 70.6C21.9438 70.6 21.175 69.6812 21.4 68.65L24.15 56.05C24.2438 55.6187 24.15 55.1625 23.9 54.8L17.5 45.85C17.25 45.5 16.8688 45.2687 16.45 45.2062C16.025 45.1375 15.5938 45.2437 15.25 45.5L13 47.25C12.575 47.5875 12.35 48.1125 12.4 48.65L14.1 68.7C14.1875 69.7375 13.3875 70.6 12.35 70.6C11.45 70.6 10.6938 69.95 10.6 69.05L8.4 47.5C8.175 45.325 8.49375 43.1375 9.4 41.15L12.6 34.1C12.8438 33.5812 12.7812 32.9687 12.45 32.5L4.1 21.5C3.675 20.9375 3.475 20.2 3.55 19.5L4.7 8.79999C4.76875 8.15624 5.25625 7.71874 5.9 7.74999H6.3C7.0125 7.78749 7.48125 8.39374 7.4 9.09999L6.3 18.45C6.25 18.9062 6.39375 19.3625 6.7 19.7L12.6 26.4C12.9563 26.8187 13.5063 27.0312 14.05 26.95L23.3 25.65C23.7875 25.575 24.2125 25.2812 24.45 24.85L29.8 15.35C30.0312 14.9375 30.0688 14.4437 29.9 14L26.8 6.19999C26.5562 5.59374 26.8125 4.97499 27.4 4.69999C27.5562 4.62499 27.7438 4.60624 27.9 4.59999ZM49 8.19999C45.0438 8.19999 41.8 11.4437 41.8 15.4C41.8 19.3562 45.0438 22.6 49 22.6C52.9563 22.6 56.2 19.3562 56.2 15.4C56.2 11.4437 52.9563 8.19999 49 8.19999ZM17 11.4C19.225 11.4 21 13.175 21 15.4C21 17.625 19.225 19.4 17 19.4C14.775 19.4 13 17.625 13 15.4C13 13.175 14.775 11.4 17 11.4ZM49 11.4C51.225 11.4 53 13.175 53 15.4C53 17.625 51.225 19.4 49 19.4C46.775 19.4 45 17.625 45 15.4C45 13.175 46.775 11.4 49 11.4Z" fill="url(#paint0_linear_2_234)"/>
<defs>
<linearGradient id="paint0_linear_2_234" x1="36.9489" y1="0.89566" x2="36.9489" y2="73.9" gradientUnits="userSpaceOnUse">
<stop stop-color="#FFC619"/>
<stop offset="0.489583" stop-color="#F69020"/>
<stop offset="1" stop-color="#EA422A"/>
</linearGradient>
</defs>
</svg>
