<svg width="69" height="69" viewBox="0 0 69 69" fill="none" xmlns="http://www.w3.org/2000/svg">
<path d="M60.0044 0.931409C58.225 0.931409 56.4456 1.60438 55.0997 2.95031L52.4477 5.60227C51.9345 6.11555 51.8774 6.9311 52.3166 7.51281L49.2141 10.6153C42.8893 16.9401 37.6139 18.8563 32.3157 20.6243C27.0232 22.3923 21.6166 24.0063 16.0618 29.5668L2.66516 42.9577C0.349691 45.2732 0.349691 49.0715 2.66516 51.3927L10.1363 58.8637L17.6073 66.3291C19.9285 68.6503 23.7268 68.6503 26.0423 66.3291L39.4332 52.9382C44.9938 47.3834 46.6077 41.9768 48.37 36.6843C50.138 31.3861 52.0542 26.1107 58.3847 19.7859L61.4872 16.6834C62.0689 17.1226 62.8845 17.0655 63.3977 16.5523L66.0497 13.9003C68.7473 11.2027 68.7473 6.78852 66.0497 4.09094L64.9091 2.95031C63.5574 1.60438 61.7837 0.925705 60.0044 0.931409ZM60.0044 3.8286C61.0309 3.8343 62.0575 4.22781 62.8502 5.01485L63.9852 6.15547C65.5649 7.73524 65.5649 10.256 63.9852 11.8358L62.3769 13.4441L58.9664 10.0336C58.9265 9.99367 58.8809 9.95375 58.8352 9.91953L55.5502 6.63453L57.1585 5.01485C57.9513 4.22781 58.9778 3.8286 60.0044 3.8286ZM34.5 3.84C33.6959 3.84 33.04 4.49586 33.04 5.3C33.04 6.10414 33.6959 6.76 34.5 6.76C35.3041 6.76 35.96 6.10414 35.96 5.3C35.96 4.49586 35.3041 3.84 34.5 3.84ZM43.26 8.22C42.4559 8.22 41.8 8.87586 41.8 9.68C41.8 10.4841 42.4559 11.14 43.26 11.14C44.0641 11.14 44.72 10.4841 44.72 9.68C44.72 8.87586 44.0641 8.22 43.26 8.22ZM54.3697 9.58875L59.4113 14.6303L56.3145 17.7214C54.1245 19.9171 52.4477 22.0216 51.0676 24.069L44.931 17.9324C46.9784 16.5523 49.0829 14.8755 51.2786 12.6855L54.3697 9.58875ZM42.3874 19.5122L49.4878 26.6126C48.2388 28.8254 47.3263 30.9527 46.5735 32.9944L38.6519 30.3481L36.0056 22.4265C38.0473 21.6737 40.1746 20.7612 42.3874 19.5122ZM33.251 23.3903L36.114 31.9678C36.2566 32.4013 36.5988 32.7434 37.0322 32.886L45.6097 35.749C45.604 35.749 45.604 35.7547 45.604 35.7547C43.8189 41.1156 42.473 45.7751 37.3744 50.8794L23.9834 64.2703C22.7801 65.468 20.8752 65.468 19.6719 64.2703L4.72969 49.3281C3.53204 48.1248 3.53204 46.2199 4.72969 45.0166L18.1206 31.6256C23.2249 26.527 27.8844 25.1811 33.2453 23.396C33.2453 23.396 33.251 23.396 33.251 23.3903ZM62.24 24.28C61.4359 24.28 60.78 24.9359 60.78 25.74C60.78 26.5441 61.4359 27.2 62.24 27.2C63.0441 27.2 63.7 26.5441 63.7 25.74C63.7 24.9359 63.0441 24.28 62.24 24.28ZM66.62 30.12C65.8159 30.12 65.16 30.7759 65.16 31.58C65.16 32.3841 65.8159 33.04 66.62 33.04C67.4241 33.04 68.08 32.3841 68.08 31.58C68.08 30.7759 67.4241 30.12 66.62 30.12ZM59.32 33.04C58.5159 33.04 57.86 33.6959 57.86 34.5C57.86 35.3041 58.5159 35.96 59.32 35.96C60.1241 35.96 60.78 35.3041 60.78 34.5C60.78 33.6959 60.1241 33.04 59.32 33.04ZM31.58 34.5C29.966 34.5 28.66 35.806 28.66 37.42C28.66 39.034 29.966 40.34 31.58 40.34C33.194 40.34 34.5 39.034 34.5 37.42C34.5 35.806 33.194 34.5 31.58 34.5ZM20.3448 35.327C19.9627 35.3327 19.6034 35.4866 19.3297 35.7547L10.1363 44.9538C9.56594 45.5241 9.56594 46.4538 10.1363 47.0241L21.9759 58.8637C22.5463 59.4284 23.4759 59.4284 24.0462 58.8637L33.2396 49.6646C33.8099 49.0943 33.8099 48.1704 33.2396 47.6001L21.3999 35.7547C21.1205 35.4809 20.7384 35.327 20.3448 35.327ZM20.362 38.8572L30.1428 48.6323L23.0082 55.7612L13.233 45.9918L20.362 38.8572Z" fill="url(#paint0_linear_2_264)"/>
<defs>
<linearGradient id="paint0_linear_2_264" x1="34.5043" y1="0.931374" x2="34.5043" y2="68.07" gradientUnits="userSpaceOnUse">
<stop stop-color="#FFC619"/>
<stop offset="0.484375" stop-color="#F69020"/>
<stop offset="1" stop-color="#EA422A"/>
</linearGradient>
</defs>
</svg>
