<svg width="83" height="79" viewBox="0 0 83 79" fill="none" xmlns="http://www.w3.org/2000/svg">
<path d="M56.855 0.475624L55.9213 1.87625L41.1888 23.0931L28.22 26.9319L28.1681 26.9838H28.1163C26.4757 27.5998 25.2048 28.6762 24.2256 30.0444L24.1738 30.0963V30.1481L12.9688 47.4225L12.5538 46.0737L1.66001 49.3419L0.10376 49.8606L0.570635 51.4169L8.04063 76.4725L8.50751 78.0806L10.1156 77.6138L19.4013 74.7606L21.0094 74.2938L20.4906 72.7375L19.5569 69.5731L32.5775 66.6681C36.5784 65.7603 40.2226 63.601 42.7969 60.2875L43.4194 59.5094L49.6963 63.9188L51.045 64.9044L51.9788 63.5038L82.0663 20.0325L83 18.6838L81.5994 17.6981L58.2038 1.46125L56.855 0.475624ZM57.685 5.0925L78.3831 19.5138L66.5038 36.6844C68.0276 31.8276 65.6932 26.0111 60.7456 22.5744C60.7327 22.5679 60.7586 22.529 60.7456 22.5225C60.7327 22.5095 60.7067 22.5355 60.6938 22.5225C57.8082 20.4864 54.378 19.637 51.2525 19.9288C49.4628 20.0973 47.7834 20.668 46.3244 21.5888L57.685 5.0925ZM64.6363 14.9487C63.7284 14.9423 62.8531 15.3897 62.3019 16.1937C61.42 17.4777 61.7442 19.2025 63.0281 20.0844C64.312 20.9662 66.0888 20.642 66.9706 19.3581C67.8525 18.0742 67.5283 16.3494 66.2444 15.4675C65.7645 15.1368 65.1809 14.9552 64.6363 14.9487ZM51.6675 23.1969C53.963 22.9894 56.5243 23.6184 58.7744 25.22L58.8263 25.2719C63.5274 28.5076 64.9281 33.9934 62.5613 37.4106H62.5094C61.3163 39.2522 59.3256 40.2508 56.855 40.3675C56.9393 38.4676 56.2649 36.5741 54.78 35.18C54.767 35.167 54.7411 35.193 54.7281 35.18C52.4651 32.9429 48.9376 32.5668 46.3244 34.2981C44.7422 31.4515 44.6255 28.3584 46.1688 26.1537C47.3489 24.4484 49.372 23.4044 51.6675 23.1969ZM38.2319 27.4506L30.295 39.9525L29.4131 41.405L30.8656 42.235L36.1569 45.3994L37.1425 46.0219L38.0763 45.2438L46.48 38.4481C46.908 38.312 47.2581 38.0137 47.4656 37.6181L47.8806 37.3069C49.2034 36.2045 51.2266 36.2953 52.4456 37.5144V37.5662H52.4975C53.8592 38.8113 53.9824 40.7566 52.8088 42.2869L40.2031 58.2125C38.1281 60.8776 35.1583 62.6997 31.8513 63.4519L18.6231 66.4088L13.9544 50.7425L14.4731 50.535L15.0438 50.3275L15.355 49.8606L26.9231 32.0156C27.5781 31.0948 28.2524 30.5307 29.2056 30.1481C29.2445 30.1352 29.2705 30.1092 29.3094 30.0963L38.2319 27.4506ZM42.0188 27.6581C41.3768 30.5437 42.0252 33.6756 43.6788 36.425L36.8831 41.9756L34.03 40.2638L42.0188 27.6581ZM63.1838 41.5088L50.215 60.2875L45.4425 56.9156L55.4025 44.3619V44.31H55.4544C55.61 44.109 55.7397 43.9015 55.8694 43.6875C58.5669 43.7653 61.1671 43.0715 63.1838 41.5088ZM10.3231 50.1719L16.8594 72.115L10.7381 73.9825L4.20188 52.0913L10.3231 50.1719Z" fill="url(#paint0_linear_2_244)"/>
<defs>
<linearGradient id="paint0_linear_2_244" x1="41.5519" y1="0.475624" x2="41.5519" y2="78.0806" gradientUnits="userSpaceOnUse">
<stop stop-color="#FFC619"/>
<stop offset="0.494792" stop-color="#F69020"/>
<stop offset="1" stop-color="#EA422A"/>
</linearGradient>
</defs>
</svg>
