<svg width="80" height="78" viewBox="0 0 80 78" fill="none" xmlns="http://www.w3.org/2000/svg">
<path d="M40 0.600006C34.45 0.600006 31.0188 1.83126 30.1 2.20001C29.9375 2.24376 29.7875 2.31251 29.65 2.40001C29.6313 2.40001 29.6188 2.40001 29.6 2.40001C29.5688 2.41251 29.5312 2.43126 29.5 2.45001C29.4813 2.46876 29.4688 2.48126 29.45 2.50001C29.4188 2.51251 29.3813 2.53126 29.35 2.55001C29.3312 2.56876 29.3188 2.58126 29.3 2.60001C29.2438 2.64376 29.1938 2.69376 29.15 2.75001C29.1313 2.78126 29.1125 2.81876 29.1 2.85001C29.0812 2.86876 29.0688 2.88126 29.05 2.90001C29.0312 2.93126 29.0125 2.96876 29 3.00001L26.15 7.20001L18.85 9.55001C18.75 9.57501 18.6438 9.60626 18.55 9.65001C17.1313 10.1125 15.4563 11.1625 13.6 13.05C11.575 15.1125 9.45 18.1125 7.9 22.3C6.7 25.5375 4.7625 30.6188 3.1 35.25C2.26875 37.5688 1.50625 39.7375 0.95 41.6C0.39375 43.4625 0 44.8625 0 46.1V69.4C0 70.2813 0.71875 71 1.6 71H12.8C13.6812 71 14.4 70.2813 14.4 69.4V47.05C14.4 47.0563 14.4 47.05 14.4 47C14.4125 46.925 14.4563 46.7375 14.55 46.5C14.7 46.1188 14.9563 45.625 15.25 45.05C15.8313 43.8938 16.6438 42.4563 17.45 41.1C17.525 40.9688 17.525 40.9813 17.6 40.85V75.8C17.6 76.6813 18.3188 77.4 19.2 77.4H60.8C61.6813 77.4 62.4 76.6813 62.4 75.8L62.3 43.95V43.9L62.35 40.75C62.4562 40.925 62.4438 40.9188 62.55 41.1C63.3563 42.4563 64.1688 43.8938 64.75 45.05C65.0438 45.625 65.3 46.1188 65.45 46.5C65.5625 46.7875 65.5938 47.025 65.6 47.05V69.4C65.6 70.2813 66.3187 71 67.2 71H78.4C79.2812 71 80 70.2813 80 69.4V46.1C80 44.8625 79.6063 43.4625 79.05 41.6C78.4938 39.7375 77.7313 37.5688 76.9 35.25C75.2375 30.6188 73.3 25.5375 72.1 22.3C70.55 18.1125 68.425 15.1125 66.4 13.05C64.525 11.1438 62.8312 10.1 61.4 9.65001C61.3188 9.61251 61.2375 9.57501 61.15 9.55001L53.85 7.20001L51.05 3.05001C51.0188 3.00001 50.9875 2.95001 50.95 2.90001C50.9188 2.86251 50.8875 2.83126 50.85 2.80001C50.85 2.78126 50.85 2.76876 50.85 2.75001C50.7 2.58126 50.5125 2.44376 50.3 2.35001C50.3 2.35001 50.2562 2.30001 50.25 2.30001C50.1562 2.25626 50.05 2.22501 49.95 2.20001C49.1125 1.86251 45.6562 0.600006 40 0.600006ZM40 3.80001C43.8812 3.80001 46.3563 4.36876 47.7 4.80001C47.4688 5.61251 47.1063 6.66876 46.45 7.80001C45.225 9.91251 43.4062 11.8 40 11.8C36.5938 11.8 34.775 9.91251 33.55 7.80001C32.8937 6.66876 32.5312 5.61251 32.3 4.80001C33.6437 4.36876 36.1188 3.80001 40 3.80001ZM29.95 7.40001C30.2188 8.06876 30.3813 8.67501 30.8 9.40001C31.7812 11.0938 33.325 12.9125 35.5 14L31.25 18.25L28.95 8.95001L29.95 7.40001ZM50.05 7.40001L51.05 8.95001L48.75 18.25L44.5 14C46.675 12.9125 48.2188 11.0938 49.2 9.40001C49.6188 8.67501 49.7812 8.06876 50.05 7.40001ZM26.05 10.65L28.85 21.8C28.9875 22.3688 29.4188 22.8188 29.9813 22.975C30.5375 23.125 31.1438 22.9688 31.55 22.55L39.2 14.9C39.4688 14.9188 39.7188 15 40 15C40.2812 15 40.5312 14.9188 40.8 14.9L48.45 22.55C48.8563 22.9688 49.4625 23.125 50.0187 22.975C50.5812 22.8188 51.0125 22.3688 51.15 21.8L53.95 10.65L58.9 12.2C58.6875 13.2125 58.1938 15.4188 57.85 19.65C57.475 24.2813 57.525 29.9438 58.95 34.9C58.9625 34.95 58.9813 35 59 35.05C59.0063 35.0625 58.9938 35.0875 59 35.1C59.025 35.2563 59.075 35.4063 59.15 35.55C59.175 35.6313 59.175 35.7188 59.2 35.8L59.1 43.9L59.2 74.2H20.8V36C23.0938 31.6625 23.0125 25.6688 22.5 20.5C22.0438 15.9375 21.4 13.2813 21.15 12.2L26.05 10.65ZM18.2 13.45C18.5625 15.125 19.025 17.5375 19.35 20.8C19.7875 25.2063 19.6812 30.2875 18.5 33.55C18.2875 33.7063 18.1125 33.9125 18 34.15C18 34.15 16.35 36.7188 14.7 39.5C13.875 40.8938 13.0375 42.3313 12.4 43.6C12.0813 44.2375 11.8062 44.8125 11.6 45.35C11.3938 45.8875 11.2 46.3063 11.2 47V67.8H3.2V46.1C3.2 45.7875 3.46875 44.3188 4 42.55C4.53125 40.7813 5.28125 38.5875 6.1 36.3C7.74375 31.725 9.68125 26.7375 10.9 23.45C12.3 19.6813 14.1938 17.0375 15.9 15.3C16.7125 14.475 17.5375 13.8938 18.2 13.45ZM61.85 13.45C62.5063 13.8875 63.3 14.4875 64.1 15.3C65.8063 17.0375 67.7 19.6813 69.1 23.45C70.3187 26.7375 72.2562 31.725 73.9 36.3C74.7188 38.5875 75.4688 40.7813 76 42.55C76.5312 44.3188 76.8 45.7875 76.8 46.1V67.8H68.8V47C68.8 46.3063 68.6062 45.8875 68.4 45.35C68.1937 44.8125 67.9188 44.2375 67.6 43.6C66.9625 42.3313 66.125 40.8938 65.3 39.5C63.65 36.7188 62 34.15 62 34.15C61.9562 34.0625 61.9062 33.9813 61.85 33.9C60.6688 29.6188 60.6938 24.2875 61.05 19.9C61.2812 17.0813 61.5812 14.975 61.85 13.45Z" fill="url(#paint0_linear_2_208)"/>
<defs>
<linearGradient id="paint0_linear_2_208" x1="40" y1="0.600006" x2="40" y2="77.4" gradientUnits="userSpaceOnUse">
<stop stop-color="#FFC619"/>
<stop offset="0.489583" stop-color="#F69020"/>
<stop offset="1" stop-color="#EA422A"/>
</linearGradient>
</defs>
</svg>
