<svg width="14" height="14" viewBox="0 0 14 14" fill="none" xmlns="http://www.w3.org/2000/svg">
<path d="M6.67971 0.957021C3.09768 0.855459 0.10549 3.6914 0.00392675 7.27343C-0.0976353 10.8555 2.7383 13.8516 6.32033 13.9531C9.90236 14.0508 12.8985 11.2187 13 7.6328C13.0196 6.8828 12.9063 6.16015 12.6875 5.48436L11.8633 6.26171C11.961 6.6953 12.0117 7.14452 12 7.60936C11.9141 10.6406 9.37893 13.0351 6.34768 12.9531C3.31643 12.8672 0.91799 10.332 1.00002 7.30077C1.08596 4.26952 3.62111 1.87108 6.65236 1.95312C7.64455 1.98437 8.56643 2.27733 9.3594 2.76562L10.1094 2.05468C9.12502 1.39843 7.95315 0.992178 6.67971 0.957021ZM11.5 2.79296L5.50002 8.79296L3.85158 7.14843L3.50002 6.79296L2.79299 7.49999L3.14846 7.85155L5.50002 10.207L12.2071 3.49999L11.5 2.79296Z" fill="#F69020"/>
</svg>
