<svg width="250" height="70" viewBox="0 0 250 70" fill="none" xmlns="http://www.w3.org/2000/svg">
<circle cx="35" cy="35" r="35" fill="#2E3441"/>
<path d="M38.5686 25.6032L29.5686 34.826L32.4314 37.6196L41.4314 28.3968L38.5686 25.6032ZM41.4314 41.6032L32.4314 32.3804L29.5686 35.174L38.5686 44.3968L41.4314 41.6032Z" fill="#606571"/>
<circle r="35" transform="matrix(-1 0 0 1 215 35)" fill="#2E3441"/>
<path d="M211.431 25.6032L220.431 34.826L217.569 37.6196L208.569 28.3968L211.431 25.6032ZM208.569 41.6032L217.569 32.3804L220.431 35.174L211.431 44.3968L208.569 41.6032Z" fill="#606571"/>
<path d="M110.432 31.832C110.432 29.048 108.08 27.368 104.72 27.368C102.704 27.368 100.952 27.8 99.488 28.568V31.184C101.072 30.272 102.752 29.84 104.36 29.84C106.592 29.84 107.816 30.704 107.816 32.168C107.816 33.512 106.736 34.376 104.72 34.376L102.44 34.352V36.824H105.032C106.976 36.824 108.488 37.424 108.488 39.272C108.488 41.12 106.808 41.816 104.648 41.84C102.632 41.864 100.952 41.552 99.2 40.592V43.232C100.928 43.976 102.656 44.312 104.864 44.312C108.2 44.312 111.104 42.848 111.104 39.56C111.104 37.088 109.544 35.864 108.008 35.384C109.472 34.904 110.432 33.536 110.432 31.832Z" fill="white"/>
<path d="M121.859 44L125.971 38.976V44H127.683V36.32H126.211L122.099 41.344V36.32H120.387V44H121.859ZM136.321 41.904C136.321 40.944 135.681 40.304 134.801 40.064C135.601 39.856 136.161 39.264 136.161 38.352C136.161 37.104 135.169 36.096 132.801 36.096C131.745 36.096 130.721 36.352 129.985 36.704V38.176C130.641 37.824 131.697 37.552 132.593 37.552C133.697 37.552 134.433 37.888 134.433 38.576C134.433 39.216 133.809 39.44 132.993 39.44H131.425V40.752H132.993C133.761 40.752 134.593 40.88 134.593 41.696C134.593 42.544 133.633 42.752 132.497 42.752C131.569 42.752 130.465 42.464 129.841 42.112V43.584C130.545 43.952 131.569 44.208 132.721 44.208C135.089 44.208 136.321 43.248 136.321 41.904ZM142.268 36.56C142.268 38.864 144.156 40.016 146.028 40.016C147.196 40.016 148.156 39.76 149.196 39.136C148.972 41.744 147.484 42.592 145.82 42.592C144.924 42.592 143.98 42.352 143.18 41.904V43.568C144.044 43.984 145.02 44.208 145.996 44.208C148.78 44.208 151.036 42.448 151.036 38.464C151.036 35.024 149.612 32.912 146.3 32.912C144.124 32.912 142.268 34.16 142.268 36.56ZM146.428 34.48C147.964 34.48 148.972 35.328 149.18 37.52C148.396 38.144 147.452 38.432 146.556 38.432C145.276 38.432 144.108 37.968 144.108 36.48C144.108 35.04 145.164 34.48 146.428 34.48Z" fill="#606571"/>
</svg>
