<svg width="62" height="61" viewBox="0 0 62 61" fill="none" xmlns="http://www.w3.org/2000/svg">
<path d="M37.84 0.15686L36.8784 1.11842L32.5169 5.47999L37.84 10.8031L43.1631 5.47999L37.84 0.15686ZM20.84 3.43999C20.4793 3.44002 20.1334 3.58332 19.8784 3.83836C19.6233 4.0934 19.48 4.4393 19.48 4.79999V11.6C19.48 11.9607 19.6233 12.3066 19.8784 12.5616C20.1334 12.8167 20.4793 12.9599 20.84 12.96H22.2C23.8258 12.96 24.1794 13.4489 24.5269 14.2297C24.8744 15.0105 24.92 16.1839 24.92 17.04C24.92 18.1503 24.7854 19.3177 24.5959 20.44C23.4004 20.0188 22.2533 19.7675 21.1906 19.76C19.9897 19.7514 18.7955 20.0886 17.942 20.942C17.578 21.3061 17.3339 21.741 17.1452 22.2011L17.1213 22.1931L2.17453 60.0819L41.4153 46.6465L41.4073 46.6226C41.9111 46.4326 42.3845 46.1712 42.778 45.778C43.7952 44.7607 44.071 43.2943 43.9202 41.8281C43.825 40.9038 43.5573 39.9275 43.1711 38.9142C44.2449 38.8492 45.3868 38.8 46.68 38.8C48.6188 38.8 50.4531 39.0344 51.6445 39.4481C52.2402 39.6549 52.66 39.9083 52.8638 40.1015C53.0675 40.2948 53.0789 40.3508 53.0789 40.5V41.52C53.0789 41.8807 53.2222 42.2266 53.4773 42.4816C53.7323 42.7367 54.0782 42.88 54.4389 42.88H60.28C60.462 42.88 60.6422 42.8436 60.8098 42.7728C60.9774 42.7019 61.1292 42.5982 61.256 42.4676C61.3828 42.3371 61.4821 42.1824 61.5481 42.0128C61.6141 41.8432 61.6453 41.6621 61.64 41.4801C61.64 41.4801 61.6 39.8042 61.6002 39.7855C61.6002 39.7846 61.6002 39.7837 61.6002 39.7828C61.6251 36.6954 59.6804 34.3026 57.2811 32.8314C54.8818 31.3602 51.9699 30.64 49.3708 30.64C45.0693 30.64 41.8697 31.7559 39.7286 32.8606C39.0535 31.9437 38.3095 31.0197 37.4973 30.1008C37.9824 29.946 38.4747 29.8019 38.9503 29.6731C39.9085 29.4137 40.8142 29.2011 41.5189 29.0436C42.2236 28.8861 42.6127 28.8185 42.9666 28.7195C44.0644 28.4118 45.5631 28.0357 46.9058 27.139C48.2484 26.2424 49.4 24.6297 49.4 22.48C49.4 21.8915 49.1146 21.5641 48.9272 21.12H49.4C52.3074 21.12 54.84 18.7724 54.84 15.68V13.81C54.84 13.81 54.8502 13.6247 54.9781 13.4169C55.106 13.209 55.2083 12.96 56.2 12.96H57.56C57.9207 12.9599 58.2666 12.8167 58.5216 12.5616C58.7767 12.3066 58.92 11.9607 58.92 11.6V6.16264C58.92 5.80196 58.7767 5.45606 58.5216 5.20102C58.2666 4.94597 57.9207 4.80268 57.56 4.80264H55.3553C51.7406 4.7996 49.5079 6.47283 48.3136 8.06452C47.4281 9.24419 47.1553 10.702 46.9456 11.9533C46.8537 12.5021 46.8721 12.5613 46.8314 12.96H46.68C44.3378 12.96 42.5025 13.809 41.3861 15.1487C40.2697 16.4884 39.88 18.1733 39.88 19.76V21.6061C37.651 22.341 35.0982 23.5343 32.902 25.6117C31.6075 24.5108 30.3208 23.527 29.0584 22.7058C30.4523 20.2479 31.72 16.9316 31.72 12.96C31.72 10.6178 30.9437 8.25265 29.3188 6.44155C27.6938 4.63045 25.2038 3.43999 22.0991 3.43999H22.0964H22.0778H20.84ZM37.84 4.00311L39.3169 5.47999L37.84 6.95686L36.3631 5.47999L37.84 4.00311ZM9.28 5.59686L8.31844 6.55842L3.95688 10.92L9.28 16.2431L14.6031 10.92L9.28 5.59686ZM22.2 6.17858C24.572 6.20572 26.1924 7.02989 27.2947 8.25842C28.4152 9.50732 29 11.2222 29 12.96C29 15.7916 28.1754 18.1017 27.215 20.092C27.3676 19.0497 27.64 18.1279 27.64 17.04C27.64 16.1839 27.6856 14.6358 27.0131 13.1247C26.3406 11.6135 24.6542 10.24 22.2 10.24V6.17858ZM55.3527 7.52264C55.3535 7.52264 55.3544 7.52264 55.3553 7.52264H56.2V10.24C54.4717 10.24 53.214 11.096 52.6619 11.9931C52.1098 12.8903 52.12 13.81 52.12 13.81V15.68C52.12 17.3476 50.9126 18.4 49.4 18.4H46.68C46.4322 18.4 46.1892 18.4677 45.977 18.5958C45.7649 18.7239 45.5918 18.9075 45.4765 19.1268C45.3611 19.346 45.3078 19.5927 45.3223 19.84C45.3369 20.0874 45.4188 20.3261 45.5591 20.5303C45.5595 20.531 45.6651 20.6647 45.6733 20.6737C45.6814 20.6828 45.6867 20.6893 45.6919 20.695C45.7022 20.7063 45.7141 20.718 45.7291 20.7348C45.759 20.7684 45.802 20.8184 45.8539 20.8809C45.9577 21.0059 46.0955 21.1833 46.2284 21.3856C46.4943 21.7902 46.68 22.2977 46.68 22.48C46.68 23.782 46.2185 24.3255 45.3944 24.8759C44.5702 25.4263 43.3483 25.788 42.2334 26.1005C42.2786 26.0878 41.651 26.2275 40.9239 26.39C40.1969 26.5525 39.2558 26.774 38.2411 27.0487C36.6831 27.4706 35.1323 28.1476 33.6936 28.8683C35.9712 26.0344 39.0983 24.493 41.6066 23.7895C41.8923 23.7095 42.1441 23.5382 42.3235 23.3018C42.5028 23.0654 42.5999 22.7768 42.6 22.48V19.76C42.6 18.6267 42.8903 17.5915 43.4739 16.8912C44.0575 16.191 44.9422 15.68 46.68 15.68H48.04C48.3881 15.6798 48.7229 15.546 48.9754 15.3064C49.228 15.0667 49.379 14.7394 49.3973 14.3917C49.3973 14.3917 49.4468 13.4864 49.6284 12.4022C49.8101 11.3179 50.2173 10.0539 50.4864 9.69545C50.4873 9.69545 50.4882 9.69545 50.4891 9.69545C51.335 8.56756 52.5003 7.52024 55.3527 7.52264ZM9.28 9.44311L10.7569 10.92L9.28 12.3969L7.80313 10.92L9.28 9.44311ZM56.88 21.12L53.48 24.52L56.88 27.92L60.2773 24.52L56.88 21.12ZM3.84 22.48L0.440002 25.88L3.84 29.28L7.23735 25.88L3.84 22.48ZM21.1694 22.48C21.8823 22.485 22.8672 22.7455 23.9983 23.2025C23.6094 24.6874 23.2347 25.7822 23.1191 26.1323C23.0258 26.4152 23.028 26.7208 23.1252 27.0023C23.2224 27.2838 23.4093 27.5256 23.6573 27.6906C23.9052 27.8556 24.2005 27.9346 24.4977 27.9156C24.7949 27.8966 25.0776 27.7805 25.3025 27.5853C25.4932 27.4192 25.8273 27.1077 26.4341 26.4165C26.7582 26.0473 27.1363 25.5801 27.5338 25.0459C28.6918 25.7727 29.9004 26.6537 31.1091 27.6623C30.9331 27.9028 30.7492 28.1295 30.5831 28.3875L27.8578 32.6242C27.689 32.8885 27.6167 33.2031 27.6532 33.5146C27.6897 33.826 27.8327 34.1154 28.0581 34.3335C28.2834 34.5517 28.5772 34.6852 28.8897 34.7116C29.2022 34.738 29.5143 34.6556 29.773 34.4783L33.8636 31.6547C34.1036 31.489 34.4176 31.3176 34.772 31.1473C35.7475 32.198 36.6361 33.2571 37.4123 34.2976C36.9776 34.6319 36.6378 34.9272 36.573 34.9909C36.5721 34.9918 36.5712 34.9927 36.5703 34.9936L33.4838 38.043C33.2616 38.2626 33.1218 38.552 33.0878 38.8626C33.0539 39.1732 33.128 39.4859 33.2975 39.7484C33.467 40.0108 33.7218 40.2068 34.0188 40.3036C34.3159 40.4003 34.6372 40.3918 34.9288 40.2795C34.9288 40.2795 36.714 39.6018 40.3342 39.1639C40.8332 40.3027 41.1354 41.3227 41.2161 42.107C41.3165 43.0824 41.1228 43.5869 40.8548 43.8548C40.7501 43.9595 40.6 44.0469 40.4113 44.1151L40.2731 44.163C40.0318 44.226 39.7267 44.2561 39.3222 44.232C38.4734 44.1814 37.3054 43.8629 35.9833 43.2625C33.3391 42.0617 30.0869 39.7653 27.0211 36.6989C23.9552 33.6324 21.6585 30.3809 20.4575 27.7367C19.857 26.4146 19.5386 25.2438 19.488 24.3951C19.4628 23.9734 19.4962 23.6546 19.565 23.4097C19.573 23.3812 19.5852 23.3618 19.5942 23.3353C19.6633 23.1311 19.755 22.9753 19.8652 22.8651C20.0888 22.6415 20.4554 22.4749 21.1694 22.48ZM17.6897 28.1644C17.7842 28.3963 17.8718 28.6265 17.9792 28.863C19.3684 31.9215 21.8371 35.3605 25.098 38.622C28.3589 41.8837 31.7984 44.3517 34.857 45.7408C34.9803 45.7967 35.0989 45.8397 35.2209 45.8922L6.86547 55.6008L17.6897 28.1644ZM49.3708 33.36C51.4419 33.36 53.9821 33.9988 55.86 35.1503C57.7379 36.3018 58.896 37.7953 58.8802 39.7589C58.879 39.8636 58.8851 39.9941 58.8881 40.16H55.6475C55.5423 39.3861 55.2621 38.6265 54.7364 38.128C54.1229 37.546 53.3684 37.1691 52.5344 36.8795C50.8664 36.3004 48.8212 36.08 46.68 36.08C43.1799 36.08 40.7852 36.4386 38.7086 36.7786C39.0206 36.4807 42.3746 33.36 49.3708 33.36ZM47.36 49.1169L46.3984 50.0784L42.0369 54.44L47.36 59.7631L52.6831 54.44L47.36 49.1169ZM47.36 52.9631L48.8369 54.44L47.36 55.9169L45.8831 54.44L47.36 52.9631Z" fill="url(#paint0_linear_2_78)"/>
<defs>
<linearGradient id="paint0_linear_2_78" x1="31.0403" y1="0.15686" x2="31.0403" y2="60.0819" gradientUnits="userSpaceOnUse">
<stop stop-color="#FFC619"/>
<stop offset="0.520833" stop-color="#F69020"/>
<stop offset="1" stop-color="#EA422A"/>
</linearGradient>
</defs>
</svg>
