<svg width="39" height="37" viewBox="0 0 39 37" fill="none" xmlns="http://www.w3.org/2000/svg">
<path d="M29.2839 0.459993C27.7426 0.488083 26.5043 0.936122 25.6612 1.74925C24.8181 2.56238 24.4249 3.69134 24.396 4.8755C24.396 4.87603 24.396 4.87657 24.396 4.8771C24.3773 5.64871 24.5372 6.34492 24.7211 7.11128C24.5094 7.43052 24.3605 7.8179 24.4216 8.33007C24.4216 8.3306 24.4216 8.33114 24.4216 8.33167C24.4924 8.92002 24.6549 9.37299 24.9245 9.71702C25.048 9.87462 25.2289 9.88636 25.3873 9.98128C25.5547 10.5342 25.7826 11.059 26.1016 11.4787C26.3056 11.7472 26.5146 11.9869 26.7054 12.1818C26.7512 12.2286 26.8068 12.2565 26.8463 12.2971C26.8497 12.7136 26.8512 13.1045 26.8207 13.5367C26.7218 13.7527 26.4181 14.0126 25.7669 14.2815C25.3987 14.4335 24.9574 14.585 24.4904 14.7491C24.5151 14.5264 24.5337 14.2913 24.5369 14.0284C24.5369 14.0279 24.5369 14.0274 24.5369 14.0268C24.5459 13.2528 24.4199 12.4308 23.986 11.7062C23.5837 11.0344 22.8473 10.5247 21.9279 10.3352C21.344 9.7519 20.523 9.47999 19.5993 9.47999C19.5945 9.47995 19.5897 9.47995 19.5849 9.47999C18.0435 9.50809 16.8052 9.95612 15.9621 10.7692C15.119 11.5824 14.7274 12.7113 14.6985 13.8955C14.6985 13.896 14.6985 13.8966 14.6985 13.8971C14.6915 14.1873 14.7163 14.4661 14.7513 14.7427C14.1938 14.5529 13.6511 14.3815 13.2026 14.2126C12.5294 13.959 12.212 13.6958 12.1328 13.5367C12.1028 13.1069 12.1037 12.7175 12.1072 12.3019C12.1468 12.2614 12.2021 12.2334 12.2481 12.1866C12.4395 11.9919 12.6485 11.7535 12.8535 11.4851C13.1738 11.0657 13.4026 10.5394 13.571 9.98609C13.7306 9.89099 13.9131 9.88017 14.037 9.72183C14.3065 9.37774 14.4674 8.92406 14.5383 8.33648V8.33488C14.6 7.82065 14.4502 7.42998 14.2356 7.10968C14.3899 6.53199 14.5435 5.90243 14.5543 5.01323C14.5633 4.23915 14.4374 3.41558 14.0034 2.69097C13.6011 2.01923 12.8648 1.50951 11.9454 1.32003C11.3617 0.736884 10.5419 0.464797 9.61833 0.464797C9.613 0.464745 9.60766 0.464745 9.60232 0.464797C8.06103 0.49334 6.82412 0.94085 5.98119 1.75406C5.13825 2.56726 4.74536 3.69634 4.71595 4.88031C4.71595 4.88084 4.71595 4.88137 4.71595 4.88191C4.6973 5.65351 4.85722 6.34973 5.04107 7.11609C4.82943 7.43533 4.68047 7.8227 4.74158 8.33488C4.74158 8.33541 4.74158 8.33594 4.74158 8.33648C4.81242 8.92505 4.97435 9.37939 5.24447 9.72343C5.36854 9.88146 5.55128 9.89121 5.71052 9.98609C5.87805 10.5381 6.103 11.0643 6.42162 11.4835C6.6256 11.752 6.83458 11.9901 7.0254 12.185C7.07118 12.2318 7.12683 12.2597 7.16634 12.3003C7.1697 12.719 7.17157 13.1099 7.14072 13.5448C7.05816 13.7244 6.86094 13.9282 6.38638 14.1534C5.8839 14.3917 5.17709 14.6132 4.43087 14.8853C3.68465 15.1573 2.89069 15.4813 2.19029 16.0096C1.48989 16.5378 0.890121 17.3084 0.660795 18.3254C0.631544 18.4323 0.624262 18.544 0.63939 18.6538C0.654519 18.7636 0.691743 18.8692 0.748815 18.9642C0.805887 19.0592 0.881623 19.1416 0.971447 19.2066C1.06127 19.2715 1.16332 19.3175 1.27143 19.3419C1.37955 19.3663 1.49148 19.3685 1.60047 19.3484C1.70946 19.3283 1.81324 19.2863 1.90556 19.225C1.99787 19.1637 2.0768 19.0843 2.13758 18.9916C2.19835 18.8989 2.23971 18.7949 2.25915 18.6858C2.39842 18.0681 2.70383 17.6764 3.17685 17.3196C3.64987 16.9629 4.2985 16.6791 4.99302 16.426C5.68754 16.1728 6.4198 15.9517 7.08787 15.6348C7.75593 15.3178 8.42961 14.8701 8.72306 14.0813C8.7485 14.0127 8.76466 13.9411 8.77111 13.8683C8.83974 13.1055 8.81435 12.5694 8.81435 11.94C8.81425 11.7906 8.77332 11.644 8.69598 11.5161C8.61864 11.3883 8.50783 11.284 8.37552 11.2145C8.50918 11.2845 8.33505 11.1785 8.19775 11.0383C8.06045 10.8981 7.8895 10.7025 7.72849 10.4906C7.40646 10.0668 7.15434 9.52145 7.14072 9.39351C7.12297 9.227 7.05468 9.06992 6.94503 8.94337C6.83537 8.81682 6.6896 8.72688 6.52732 8.68562C6.50014 8.64758 6.41468 8.50923 6.37037 8.14109C6.35985 8.05298 6.37354 8.00923 6.38638 7.98413C6.51658 7.8867 6.61487 7.75277 6.66877 7.59935C6.72267 7.44592 6.72973 7.27994 6.68908 7.12249C6.45107 6.20653 6.33873 5.63289 6.35595 4.92034C6.37768 4.05846 6.63231 3.4048 7.1199 2.93441C7.60556 2.46588 8.38011 2.1307 9.61833 2.1048H9.61994C10.4468 2.1054 10.87 2.37106 10.9236 2.46515C10.9858 2.57447 11.0723 2.66802 11.1765 2.73856C11.2806 2.8091 11.3996 2.85474 11.5242 2.87195C12.1224 2.95499 12.3842 3.17765 12.5972 3.53339C12.8103 3.88913 12.9209 4.42576 12.9143 4.99402C12.903 5.9229 12.7544 6.62528 12.6068 7.06804C12.5521 7.23187 12.5505 7.4088 12.6023 7.57359C12.6541 7.73838 12.7566 7.88262 12.8951 7.98573C12.9079 8.01105 12.9215 8.0536 12.9111 8.13948C12.8668 8.50857 12.7812 8.64771 12.7542 8.68562C12.5919 8.72688 12.4461 8.81682 12.3365 8.94337C12.2268 9.06992 12.1585 9.227 12.1408 9.39351C12.1274 9.51926 11.8752 10.0651 11.5514 10.489C11.3896 10.7009 11.217 10.8963 11.079 11.0367C10.9409 11.1771 10.7655 11.2839 10.898 11.2145C10.7657 11.284 10.6549 11.3883 10.5775 11.5161C10.5002 11.644 10.4593 11.7906 10.4592 11.94C10.4592 12.5679 10.4337 13.1055 10.5024 13.8683C10.5088 13.9411 10.525 14.0127 10.5504 14.0813C10.9066 15.0361 11.7953 15.4362 12.6245 15.7485C13.3749 16.0312 14.1632 16.2527 14.8282 16.5157C14.7361 16.7545 14.6854 17.0253 14.7241 17.3501C14.7241 17.3506 14.7241 17.3511 14.7241 17.3517C14.7949 17.94 14.9558 18.393 15.2254 18.737C15.3496 18.8955 15.5321 18.9078 15.6915 19.0029C15.859 19.5548 16.0856 20.0795 16.4042 20.4987C16.6081 20.7672 16.8155 21.0069 17.0063 21.2018C17.0521 21.2486 17.1078 21.2765 17.1473 21.3171C17.1506 21.7331 17.152 22.1237 17.1217 22.5551C17.0192 22.7793 16.69 23.0505 15.999 23.3287C15.5218 23.5208 14.9357 23.7077 14.3253 23.9341C14.4421 23.4531 14.5458 22.9311 14.5543 22.2284C14.5633 21.4543 14.4374 20.6308 14.0034 19.9062C13.6006 19.2336 12.8633 18.7224 11.9422 18.5336C11.3586 17.9524 10.54 17.68 9.61833 17.68C9.61353 17.68 9.60872 17.68 9.60392 17.68C8.06259 17.7081 6.82431 18.1561 5.98119 18.9692C5.13806 19.7824 4.74489 20.9113 4.71595 22.0955C4.71595 22.096 4.71595 22.0966 4.71595 22.0971C4.6973 22.8687 4.85722 23.5649 5.04107 24.3313C4.82943 24.6505 4.68047 25.0379 4.74158 25.5501C4.74158 25.5506 4.74158 25.5511 4.74158 25.5517C4.8124 26.14 4.97488 26.593 5.24447 26.937C5.36796 27.0946 5.5489 27.1064 5.70732 27.2013C5.87466 27.7542 6.10262 28.279 6.42162 28.6987C6.6256 28.9672 6.83458 29.2069 7.0254 29.4018C7.07118 29.4486 7.12683 29.4765 7.16634 29.5171C7.1697 29.9347 7.17142 30.3262 7.14072 30.76C7.05831 30.9394 6.85931 31.1434 6.38478 31.3685C5.88236 31.6069 5.17714 31.83 4.43087 32.1021C3.68461 32.3741 2.88915 32.6981 2.18869 33.2264C1.48822 33.7546 0.888526 34.5235 0.659194 35.5406C0.611271 35.7528 0.649566 35.9752 0.765657 36.1592C0.881748 36.3431 1.06613 36.4733 1.27825 36.5213C1.49038 36.5693 1.71288 36.5311 1.89682 36.4151C2.08077 36.299 2.2111 36.1147 2.25915 35.9026C2.39841 35.2849 2.70377 34.8916 3.17685 34.5348C3.64993 34.1781 4.29684 33.896 4.99142 33.6428C5.686 33.3896 6.41981 33.1686 7.08787 32.8516C7.75592 32.5346 8.42828 32.0855 8.72146 31.2965C8.7469 31.2279 8.76306 31.1563 8.76951 31.0835C8.83813 30.3207 8.81435 29.7846 8.81435 29.1552C8.81409 29.0056 8.77292 28.8589 8.69529 28.731C8.61766 28.6031 8.50652 28.4989 8.37392 28.4297C8.50758 28.4997 8.33345 28.3953 8.19615 28.2551C8.05884 28.1149 7.8879 27.9193 7.72689 27.7074C7.40486 27.2836 7.15274 26.7366 7.13912 26.6087C7.12128 26.4429 7.05332 26.2865 6.9443 26.1603C6.83528 26.0341 6.69038 25.9441 6.52892 25.9024C6.50198 25.8649 6.41486 25.7259 6.37037 25.3563C6.35985 25.2682 6.37354 25.2244 6.38638 25.1993C6.51658 25.1019 6.61487 24.968 6.66877 24.8145C6.72267 24.6611 6.72973 24.4951 6.68908 24.3377C6.45107 23.4217 6.33873 22.8481 6.35595 22.1355C6.37703 21.273 6.63035 20.6202 7.11829 20.1496C7.60471 19.6805 8.38164 19.3462 9.62314 19.3216C10.4462 19.3236 10.8696 19.5864 10.922 19.6787C10.9842 19.7881 11.0707 19.8816 11.1749 19.9522C11.279 20.0227 11.398 20.0683 11.5226 20.0855C12.1208 20.1686 12.3826 20.3928 12.5956 20.7486C12.8087 21.1043 12.9209 21.641 12.9143 22.2092C12.903 23.1381 12.7544 23.8405 12.6068 24.2832C12.5523 24.4467 12.5507 24.6232 12.6022 24.7876C12.6536 24.9521 12.7556 25.0961 12.8935 25.1993C12.9062 25.224 12.9201 25.2669 12.9095 25.3547C12.865 25.725 12.7776 25.8652 12.751 25.9024C12.5895 25.9441 12.4446 26.0341 12.3356 26.1603C12.2266 26.2865 12.1586 26.4429 12.1408 26.6087C12.1274 26.7345 11.8736 27.2803 11.5498 27.7042C11.3879 27.9161 11.217 28.1115 11.079 28.2519C10.9409 28.3923 10.7655 28.4975 10.898 28.4281C10.7654 28.4977 10.6545 28.6022 10.5771 28.7304C10.4998 28.8586 10.459 29.0055 10.4592 29.1552C10.4592 29.7831 10.4321 30.3207 10.5008 31.0835C10.5115 31.2008 10.5473 31.3145 10.6059 31.4168C10.6645 31.519 10.7445 31.6075 10.8403 31.676C11.1841 32.2061 11.6713 32.5961 12.2065 32.85C12.8745 33.1669 13.6084 33.388 14.3029 33.6412C14.9974 33.8943 15.6445 34.1781 16.1175 34.5348C16.5905 34.8916 16.8959 35.2833 17.0352 35.901C17.0577 36.0072 17.1011 36.1078 17.1628 36.1971C17.2246 36.2864 17.3034 36.3625 17.3948 36.4211C17.4862 36.4797 17.5883 36.5195 17.6952 36.5384C17.8021 36.5572 17.9117 36.5546 18.0176 36.5307C18.1235 36.5069 18.2236 36.4622 18.3121 36.3994C18.4006 36.3366 18.4758 36.2568 18.5332 36.1647C18.5907 36.0726 18.6292 35.97 18.6467 35.8629C18.6642 35.7557 18.6603 35.6462 18.6351 35.5406C18.4058 34.5236 17.8044 33.753 17.104 33.2248C16.4036 32.6965 15.6097 32.3725 14.8635 32.1005C14.1172 31.8284 13.412 31.6069 12.9095 31.3685C12.421 31.1368 12.2073 30.9255 12.1312 30.7423C12.1019 30.317 12.1021 29.9294 12.1056 29.5171C12.1454 29.4764 12.2019 29.4488 12.2481 29.4018C12.4395 29.2071 12.6485 28.9687 12.8535 28.7003C13.1738 28.2809 13.4026 27.7546 13.571 27.2013C13.7304 27.1062 13.9132 27.0952 14.037 26.937C14.2938 26.6091 14.4499 26.1781 14.5255 25.6301C15.1933 25.3637 15.9176 25.1293 16.6108 24.8502C17.4573 24.5093 18.3447 24.0625 18.704 23.0965C18.7294 23.0279 18.7456 22.9563 18.752 22.8835C18.8207 22.1207 18.7953 21.5846 18.7953 20.9552C18.7952 20.8058 18.7543 20.6592 18.6769 20.5313C18.5996 20.4035 18.4888 20.2992 18.3565 20.2297C18.4901 20.2997 18.316 20.1953 18.1787 20.0551C18.0414 19.9149 17.8704 19.7193 17.7094 19.5074C17.3874 19.0836 17.1353 18.5366 17.1217 18.4087C17.1039 18.2422 17.0356 18.0851 16.926 17.9586C16.8163 17.832 16.6705 17.7421 16.5083 17.7008C16.481 17.6626 16.3956 17.5246 16.3513 17.1563C16.3405 17.0661 16.3556 17.0221 16.3689 16.9977C16.4988 16.9004 16.5969 16.7667 16.6508 16.6136C16.7047 16.4606 16.7119 16.2949 16.6716 16.1377C16.4336 15.2217 16.3213 14.6481 16.3385 13.9355C16.3596 13.073 16.6129 12.4202 17.1008 11.9496C17.5873 11.4805 18.3642 11.1462 19.6057 11.1216C20.4269 11.1241 20.8533 11.3862 20.9061 11.4787C20.9682 11.5879 21.0545 11.6813 21.1583 11.7518C21.2622 11.8224 21.3808 11.8681 21.5051 11.8855C22.1033 11.9686 22.3651 12.1928 22.5782 12.5486C22.7912 12.9043 22.9035 13.4394 22.8969 14.0076C22.8856 14.9365 22.737 15.6405 22.5894 16.0832C22.5352 16.2465 22.5338 16.4226 22.5852 16.5867C22.6367 16.7508 22.7384 16.8946 22.8761 16.9977C22.8888 17.0222 22.9028 17.0646 22.8921 17.1531C22.8921 17.1536 22.8921 17.1541 22.8921 17.1547C22.8475 17.525 22.7602 17.6636 22.7335 17.7008C22.5721 17.7425 22.4272 17.8325 22.3182 17.9587C22.2091 18.0849 22.1412 18.2413 22.1233 18.4071C22.1099 18.5329 21.8561 19.0803 21.5324 19.5042C21.3705 19.7161 21.1996 19.9115 21.0615 20.0519C20.9234 20.1923 20.748 20.2975 20.8805 20.2281C20.7482 20.2976 20.6374 20.4019 20.5601 20.5297C20.4827 20.6576 20.4418 20.8041 20.4417 20.9536C20.4417 21.5815 20.4146 22.1191 20.4833 22.8819C20.4903 22.9548 20.507 23.0264 20.533 23.0949C20.8907 24.0553 21.7855 24.4539 22.6198 24.7669C23.2272 24.9948 23.8444 25.1874 24.4184 25.3899C24.4202 25.4436 24.4148 25.4934 24.4216 25.5501C24.4216 25.5506 24.4216 25.5511 24.4216 25.5517C24.4924 26.14 24.6549 26.593 24.9245 26.937C25.048 27.0946 25.2289 27.1064 25.3873 27.2013C25.5547 27.7542 25.7826 28.279 26.1016 28.6987C26.3056 28.9672 26.5146 29.2069 26.7054 29.4018C26.7512 29.4486 26.8068 29.4765 26.8463 29.5171C26.8497 29.9347 26.8514 30.3262 26.8207 30.76C26.7383 30.9394 26.5393 31.1434 26.0648 31.3685C25.5624 31.6069 24.8571 31.83 24.1109 32.1021C23.3646 32.3741 22.5691 32.6981 21.8687 33.2264C21.1682 33.7546 20.5685 34.5235 20.3392 35.5406C20.2912 35.7528 20.3294 35.9753 20.4455 36.1593C20.5616 36.3433 20.746 36.4736 20.9582 36.5216C21.1704 36.5696 21.3929 36.5313 21.5769 36.4152C21.7608 36.2991 21.8912 36.1147 21.9392 35.9026C22.0784 35.285 22.3838 34.8916 22.8568 34.5348C23.3299 34.1781 23.9768 33.896 24.6714 33.6428C25.366 33.3896 26.0998 33.1686 26.7679 32.8516C27.4359 32.5346 28.1083 32.0855 28.4015 31.2965C28.4269 31.2279 28.4431 31.1563 28.4495 31.0835C28.5181 30.3207 28.4944 29.7846 28.4944 29.1552C28.4941 29.0056 28.4529 28.8589 28.3753 28.731C28.2977 28.6031 28.1865 28.4989 28.0539 28.4297C28.1876 28.4997 28.0135 28.3953 27.8761 28.2551C27.7388 28.1149 27.5679 27.9193 27.4069 27.7074C27.0849 27.2836 26.8327 26.7366 26.8191 26.6087C26.8013 26.4429 26.7333 26.2865 26.6243 26.1603C26.5153 26.0341 26.3704 25.9441 26.2089 25.9024C26.182 25.8649 26.0949 25.7259 26.0504 25.3563C26.0499 25.3527 26.0507 25.3517 26.0504 25.3483C26.1029 25.2747 26.143 25.193 26.1689 25.1064C26.2646 25.0058 26.3333 24.8824 26.3683 24.7479C26.4033 24.6135 26.4036 24.4723 26.3691 24.3377C26.1311 23.4217 26.0187 22.8481 26.036 22.1355C26.057 21.273 26.3104 20.6202 26.7983 20.1496C27.2847 19.6805 28.0616 19.3462 29.3031 19.3216C30.1262 19.3236 30.5496 19.5864 30.602 19.6787C30.6642 19.7881 30.7507 19.8816 30.8549 19.9522C30.959 20.0227 31.078 20.0683 31.2026 20.0855C31.8008 20.1686 32.0626 20.3928 32.2756 20.7486C32.4887 21.1043 32.6009 21.641 32.5943 22.2092C32.583 23.1381 32.4344 23.8405 32.2868 24.2832C32.2323 24.4467 32.2307 24.6232 32.2822 24.7876C32.3336 24.9521 32.4356 25.0961 32.5735 25.1993C32.5863 25.2238 32.6002 25.2662 32.5895 25.3547C32.545 25.725 32.4576 25.8652 32.431 25.9024C32.2695 25.9441 32.1246 26.0341 32.0156 26.1603C31.9066 26.2865 31.8386 26.4429 31.8208 26.6087C31.8074 26.7345 31.5536 27.2803 31.2298 27.7042C31.0679 27.9161 30.897 28.1115 30.759 28.2519C30.6209 28.3923 30.4455 28.4975 30.578 28.4281C30.4454 28.4977 30.3345 28.6022 30.2571 28.7304C30.1798 28.8586 30.139 29.0055 30.1392 29.1552C30.1392 29.7831 30.1121 30.3207 30.1808 31.0835C30.1915 31.2008 30.2273 31.3145 30.2859 31.4168C30.3445 31.519 30.4245 31.6075 30.5203 31.676C30.8641 32.2061 31.3513 32.5961 31.8865 32.85C32.5545 33.1669 33.2884 33.388 33.9829 33.6412C34.6774 33.8943 35.3245 34.1781 35.7975 34.5348C36.2705 34.8916 36.5759 35.2833 36.7152 35.901C36.7377 36.0072 36.7811 36.1078 36.8428 36.1971C36.9046 36.2864 36.9834 36.3625 37.0748 36.4211C37.1662 36.4797 37.2683 36.5195 37.3752 36.5384C37.4821 36.5572 37.5917 36.5546 37.6976 36.5307C37.8035 36.5069 37.9036 36.4622 37.9921 36.3994C38.0806 36.3366 38.1558 36.2568 38.2132 36.1647C38.2707 36.0726 38.3092 35.97 38.3267 35.8629C38.3442 35.7557 38.3403 35.6462 38.3151 35.5406C38.0858 34.5236 37.4844 33.753 36.784 33.2248C36.0836 32.6965 35.2897 32.3725 34.5435 32.1005C33.7972 31.8284 33.092 31.6069 32.5895 31.3685C32.101 31.1368 31.8873 30.9255 31.8112 30.7423C31.7819 30.317 31.7821 29.9294 31.7856 29.5171C31.8254 29.4764 31.8819 29.4488 31.9281 29.4018C32.1195 29.2071 32.3285 28.9687 32.5335 28.7003C32.8538 28.2809 33.0826 27.7546 33.251 27.2013C33.4104 27.1062 33.5932 27.0952 33.717 26.937C33.9865 26.5929 34.1474 26.1393 34.2183 25.5517V25.5501C34.28 25.0359 34.1301 24.6452 33.9156 24.3249C34.0699 23.7472 34.2235 23.1175 34.2343 22.2284C34.2433 21.4543 34.1174 20.6308 33.6834 19.9062C33.2806 19.2335 32.5433 18.7224 31.6222 18.5336C31.0386 17.9524 30.22 17.68 29.2983 17.68C29.2935 17.68 29.2887 17.68 29.2839 17.68C27.7426 17.7081 26.5043 18.1561 25.6612 18.9692C24.8181 19.7824 24.4249 20.9113 24.396 22.0955C24.396 22.096 24.396 22.0966 24.396 22.0971C24.3826 22.6492 24.4721 23.1689 24.5849 23.6971C24.0842 23.5301 23.6015 23.3836 23.1948 23.231C22.5138 22.9756 22.1923 22.7096 22.1137 22.5503C22.0838 22.1216 22.0846 21.7316 22.0881 21.3171C22.128 21.2764 22.1844 21.2488 22.2306 21.2018C22.4221 21.0071 22.6311 20.7671 22.836 20.4987C23.1563 20.0794 23.3852 19.5545 23.5535 19.0013C23.7129 18.9062 23.8957 18.8952 24.0196 18.737C24.2893 18.3926 24.4501 17.9385 24.5209 17.3501C24.5594 17.0312 24.5109 16.7645 24.4216 16.5285C25.0623 16.285 25.7431 16.0642 26.3915 15.7966C27.2063 15.4602 28.0539 15.011 28.4015 14.0765C28.4269 14.0079 28.4431 13.9363 28.4495 13.8635C28.5181 13.1007 28.4944 12.5646 28.4944 11.9352C28.4941 11.7856 28.4529 11.6389 28.3753 11.511C28.2977 11.3831 28.1865 11.2789 28.0539 11.2097C28.1876 11.2797 28.0135 11.1753 27.8761 11.0351C27.7388 10.8949 27.5679 10.6993 27.4069 10.4874C27.0849 10.0636 26.8327 9.51664 26.8191 9.3887C26.8013 9.2229 26.7333 9.06647 26.6243 8.94028C26.5153 8.81409 26.3704 8.72414 26.2089 8.68241C26.182 8.64488 26.0949 8.50593 26.0504 8.13628C26.0399 8.04818 26.0535 8.00443 26.0664 7.97933C26.1966 7.8819 26.2949 7.74796 26.3488 7.59454C26.4027 7.44112 26.4097 7.27514 26.3691 7.11769C26.1311 6.20172 26.0187 5.62809 26.036 4.91554C26.057 4.05298 26.3104 3.40018 26.7983 2.9296C27.2847 2.46049 28.0616 2.12622 29.3031 2.10159C30.1262 2.10357 30.5496 2.36637 30.602 2.45874C30.6642 2.56807 30.7507 2.66162 30.8549 2.73216C30.959 2.80269 31.078 2.84833 31.2026 2.86554C31.8008 2.94858 32.0626 3.17284 32.2756 3.52859C32.4887 3.88433 32.6009 4.42096 32.5943 4.98921C32.583 5.9181 32.4344 6.62047 32.2868 7.06323C32.2323 7.22669 32.2307 7.40316 32.2822 7.56761C32.3336 7.73205 32.4356 7.87611 32.5735 7.97933C32.5863 8.0038 32.6002 8.04619 32.5895 8.13468C32.545 8.50505 32.4576 8.64523 32.431 8.68241C32.2695 8.72414 32.1246 8.81409 32.0156 8.94028C31.9066 9.06647 31.8386 9.2229 31.8208 9.3887C31.8074 9.51446 31.5536 10.0603 31.2298 10.4842C31.0679 10.6961 30.897 10.8915 30.759 11.0319C30.6209 11.1723 30.4455 11.2775 30.578 11.2081C30.4454 11.2777 30.3345 11.3822 30.2571 11.5104C30.1798 11.6386 30.139 11.7855 30.1392 11.9352C30.1392 12.5631 30.1121 13.1007 30.1808 13.8635C30.1915 13.9808 30.2273 14.0945 30.2859 14.1968C30.3445 14.299 30.4245 14.3875 30.5203 14.456C30.8641 14.9861 31.3513 15.3761 31.8865 15.63C32.5545 15.9469 33.2884 16.168 33.9829 16.4212C34.6774 16.6743 35.3245 16.9581 35.7975 17.3148C36.2705 17.6716 36.5759 18.0633 36.7152 18.681C36.7377 18.7872 36.7811 18.8878 36.8428 18.9771C36.9046 19.0664 36.9834 19.1425 37.0748 19.2011C37.1662 19.2597 37.2683 19.2995 37.3752 19.3184C37.4821 19.3372 37.5917 19.3346 37.6976 19.3107C37.8035 19.2869 37.9036 19.2423 37.9921 19.1794C38.0806 19.1166 38.1558 19.0368 38.2132 18.9447C38.2707 18.8526 38.3092 18.75 38.3267 18.6429C38.3442 18.5357 38.3403 18.4262 38.3151 18.3206C38.0858 17.3036 37.4844 16.533 36.784 16.0048C36.0836 15.4765 35.2897 15.1525 34.5435 14.8805C33.7972 14.6084 33.092 14.3869 32.5895 14.1485C32.101 13.9168 31.8873 13.7055 31.8112 13.5223C31.7819 13.097 31.7821 12.7094 31.7856 12.2971C31.8254 12.2564 31.8819 12.2288 31.9281 12.1818C32.1195 11.9871 32.3285 11.7487 32.5335 11.4803C32.8538 11.0609 33.0826 10.5346 33.251 9.98128C33.4104 9.88622 33.5932 9.87517 33.717 9.71702C33.9865 9.37293 34.1474 8.91926 34.2183 8.33167V8.33007C34.28 7.81594 34.1301 7.42515 33.9156 7.10488C34.0699 6.52721 34.2235 5.89754 34.2343 5.00843C34.2433 4.23435 34.1174 3.41077 33.6834 2.68616C33.2806 2.01358 32.5433 1.50245 31.6222 1.31363C31.0386 0.732377 30.22 0.459993 29.2983 0.459993C29.2935 0.45995 29.2887 0.45995 29.2839 0.459993Z" fill="url(#paint0_linear_2_301)"/>
<defs>
<linearGradient id="paint0_linear_2_301" x1="19.4846" y1="0.459961" x2="19.4846" y2="36.5508" gradientUnits="userSpaceOnUse">
<stop stop-color="#FFC619"/>
<stop offset="0.479167" stop-color="#F69020"/>
<stop offset="1" stop-color="#EA422A"/>
</linearGradient>
</defs>
</svg>
