<svg width="32" height="32" viewBox="0 0 32 32" fill="none" xmlns="http://www.w3.org/2000/svg">
<path d="M8.32002 0C7.26757 0 6.40002 0.866833 6.40002 1.92V14.08H7.68002V1.92C7.68002 1.55877 7.95935 1.28 8.32002 1.28H30.08C30.4407 1.28 30.72 1.55877 30.72 1.92V30.08C30.72 30.4403 30.4403 30.72 30.08 30.72H8.32002C7.95974 30.72 7.68002 30.4403 7.68002 30.08V17.92H6.40002V30.08C6.40002 31.1328 7.26718 32 8.32002 32H30.08C31.1329 32 32 31.1328 32 30.08V1.92C32 0.866833 31.1325 0 30.08 0H8.32002ZM14.1075 8.38375C13.9803 8.38403 13.8561 8.42221 13.7507 8.49342C13.6452 8.56463 13.5634 8.66563 13.5157 8.78354C13.4679 8.90145 13.4564 9.03091 13.4825 9.15541C13.5087 9.2799 13.5714 9.39378 13.6625 9.4825L19.5388 15.36H0.640021C0.555213 15.3588 0.471013 15.3745 0.392313 15.4061C0.313614 15.4377 0.241984 15.4847 0.181588 15.5442C0.121191 15.6038 0.0732319 15.6747 0.0404974 15.753C0.00776285 15.8312 -0.00909424 15.9152 -0.00909424 16C-0.00909424 16.0848 0.00776285 16.1688 0.0404974 16.247C0.0732319 16.3253 0.121191 16.3962 0.181588 16.4558C0.241984 16.5153 0.313614 16.5623 0.392313 16.5939C0.471013 16.6255 0.555213 16.6412 0.640021 16.64H19.5388L13.6613 22.5175C13.5998 22.5765 13.5508 22.6471 13.517 22.7253C13.4832 22.8034 13.4654 22.8875 13.4645 22.9727C13.4637 23.0578 13.4798 23.1423 13.512 23.2211C13.5442 23.3 13.5918 23.3716 13.652 23.4318C13.7122 23.492 13.7838 23.5396 13.8626 23.5718C13.9415 23.604 14.0259 23.6201 14.1111 23.6192C14.1962 23.6184 14.2803 23.6005 14.3585 23.5667C14.4367 23.533 14.5073 23.4839 14.5663 23.4225L21.9888 16L14.5675 8.5775C14.5077 8.51604 14.4362 8.46722 14.3572 8.43394C14.2782 8.40065 14.1933 8.38359 14.1075 8.38375V8.38375Z" fill="url(#paint0_linear_2_291)"/>
<defs>
<linearGradient id="paint0_linear_2_291" x1="15.9955" y1="0" x2="15.9955" y2="32" gradientUnits="userSpaceOnUse">
<stop stop-color="#FFC619"/>
<stop offset="0.46875" stop-color="#F69020"/>
<stop offset="1" stop-color="#EA422A"/>
</linearGradient>
</defs>
</svg>
