<svg width="29" height="29" viewBox="0 0 29 29" fill="none" xmlns="http://www.w3.org/2000/svg">
<path d="M16.6931 1.17818C16.5459 1.18951 16.4009 1.2099 16.2581 1.25068L6.03563 4.15068C4.88695 4.47693 4.205 5.68451 4.53125 6.83318L9.31625 23.6532C9.32531 23.7098 9.34344 23.7642 9.37063 23.8163L10.0594 26.2632C10.3856 27.4119 11.5932 28.0757 12.7419 27.7494L22.9644 24.8494C24.113 24.5232 24.795 23.3156 24.4688 22.1669L23.7981 19.8107C23.8072 19.6747 23.7687 19.5411 23.6894 19.4301L18.9406 2.73693C18.6959 1.87599 17.9687 1.28466 17.1281 1.17818C16.9877 1.16006 16.8404 1.16685 16.6931 1.17818ZM16.7838 2.32006C17.2573 2.28381 17.6991 2.5874 17.835 3.06318L22.4569 19.3757L10.2769 22.8194L5.655 6.50693C5.50094 5.96091 5.81586 5.41037 6.36188 5.25631L16.5844 2.35631C16.6523 2.33591 16.7158 2.32459 16.7838 2.32006ZM22.1488 6.18068C21.9811 6.20787 21.8338 6.30982 21.7455 6.45709C21.6594 6.60209 21.639 6.78107 21.6956 6.94193L24.5956 17.1644C24.6863 17.4748 25.0102 17.6538 25.3206 17.5632C25.631 17.4726 25.81 17.1486 25.7194 16.8382L22.8194 6.61568C22.7537 6.35966 22.5226 6.18068 22.2575 6.18068C22.2394 6.18068 22.2213 6.18068 22.2031 6.18068C22.185 6.18068 22.1669 6.18068 22.1488 6.18068ZM25.4294 8.01131C25.2617 8.03849 25.1145 8.14045 25.0261 8.28771C24.94 8.43271 24.9196 8.6117 24.9762 8.77256L26.4263 13.8838C26.5169 14.1942 26.8409 14.3732 27.1513 14.2826C27.4616 14.1919 27.6406 13.8679 27.55 13.5576L26.1 8.44631C26.0343 8.19029 25.8032 8.01131 25.5381 8.01131C25.52 8.01131 25.5019 8.01131 25.4837 8.01131C25.4656 8.01131 25.4475 8.01131 25.4294 8.01131ZM3.78813 11.4007C3.77 11.4052 3.75188 11.412 3.73375 11.4188C3.57063 11.4483 3.42563 11.5457 3.33953 11.6884C3.25344 11.8311 3.23078 12.0033 3.28063 12.1619L6.18063 22.3844C6.27125 22.6948 6.59524 22.8738 6.90563 22.7832C7.21602 22.6926 7.395 22.3686 7.30438 22.0582L4.40438 11.8357C4.33867 11.5797 4.10758 11.4007 3.8425 11.4007C3.82438 11.4007 3.80625 11.4007 3.78813 11.4007ZM1.9575 14.6813C1.93938 14.6858 1.92125 14.6926 1.90313 14.6994C1.74 14.7289 1.595 14.8263 1.50891 14.969C1.42281 15.1118 1.40016 15.284 1.45 15.4426L2.9 20.5538C2.99063 20.8642 3.31461 21.0432 3.625 20.9526C3.93539 20.8619 4.11438 20.5379 4.02375 20.2276L2.57375 15.1163C2.50805 14.8603 2.27695 14.6813 2.01188 14.6813C1.99375 14.6813 1.97563 14.6813 1.9575 14.6813ZM22.7831 20.4994L23.345 22.4932C23.4991 23.0392 23.1841 23.5897 22.6381 23.7438L12.4156 26.6438C11.8696 26.7979 11.3191 26.4829 11.165 25.9369L10.6031 23.9432L22.7831 20.4994ZM17.0556 22.9101C17.0035 22.9146 16.9446 22.9123 16.8925 22.9282C16.4688 23.0483 16.2287 23.5014 16.3488 23.9251C16.4688 24.3487 16.9038 24.5889 17.3275 24.4688C17.7512 24.3487 17.9913 23.9137 17.8713 23.4901C17.767 23.1185 17.4249 22.8829 17.0556 22.9101Z" fill="#606571"/>
</svg>
