<svg width="68" height="65" viewBox="0 0 68 65" fill="none" xmlns="http://www.w3.org/2000/svg">
<path d="M46.58 0.847534L45.815 1.99503L33.745 19.3775L23.12 22.5225L23.0775 22.565H23.035C21.6909 23.0697 20.6497 23.9516 19.8475 25.0725L19.805 25.115V25.1575L10.625 39.31L10.285 38.205L1.36 40.8825L0.0849991 41.3075L0.467499 42.5825L6.5875 63.11L6.97 64.4275L8.2875 64.045L15.895 61.7075L17.2125 61.325L16.7875 60.05L16.0225 57.4575L26.69 55.0775C29.9678 54.3338 32.9534 52.5647 35.0625 49.85L35.5725 49.2125L40.715 52.825L41.82 53.6325L42.585 52.485L67.235 16.87L68 15.765L66.8525 14.9575L47.685 1.65503L46.58 0.847534ZM47.26 4.63003L64.2175 16.445L54.485 30.5125C55.7334 26.5335 53.8209 21.7682 49.7675 18.9525C49.7569 18.9472 49.7781 18.9153 49.7675 18.91C49.7569 18.8994 49.7356 18.9207 49.725 18.91C47.3609 17.2419 44.5506 16.546 41.99 16.785C40.5238 16.9232 39.1478 17.3907 37.9525 18.145L47.26 4.63003ZM52.955 12.705C52.2113 12.6997 51.4941 13.0663 51.0425 13.725C50.32 14.7769 50.5856 16.19 51.6375 16.9125C52.6894 17.635 54.145 17.3694 54.8675 16.3175C55.59 15.2657 55.3244 13.8525 54.2725 13.13C53.8794 12.8591 53.4012 12.7103 52.955 12.705ZM42.33 19.4625C44.2106 19.2925 46.3091 19.8078 48.1525 21.12L48.195 21.1625C52.0466 23.8135 53.1941 28.3078 51.255 31.1075H51.2125C50.235 32.6163 48.6041 33.4344 46.58 33.53C46.6491 31.9735 46.0966 30.4222 44.88 29.28C44.8694 29.2694 44.8481 29.2907 44.8375 29.28C42.9834 27.4472 40.0934 27.1391 37.9525 28.5575C36.6562 26.2253 36.5606 23.6913 37.825 21.885C38.7919 20.4878 40.4494 19.6325 42.33 19.4625ZM31.3225 22.9475L24.82 33.19L24.0975 34.38L25.2875 35.06L29.6225 37.6525L30.43 38.1625L31.195 37.525L38.08 31.9575C38.4306 31.846 38.7175 31.6016 38.8875 31.2775L39.2275 31.0225C40.3112 30.1194 41.9688 30.1938 42.9675 31.1925V31.235H43.01C44.1256 32.255 44.2266 33.8488 43.265 35.1025L32.9375 48.15C31.2375 50.3335 28.8044 51.8263 26.095 52.4425L15.2575 54.865L11.4325 42.03L11.8575 41.86L12.325 41.69L12.58 41.3075L22.0575 26.6875C22.5941 25.9332 23.1466 25.471 23.9275 25.1575C23.9594 25.1469 23.9806 25.1257 24.0125 25.115L31.3225 22.9475ZM34.425 23.1175C33.8991 25.4816 34.4303 28.0475 35.785 30.3L30.2175 34.8475L27.88 33.445L34.425 23.1175ZM51.765 34.465L41.14 49.85L37.23 47.0875L45.39 36.8025V36.76H45.4325C45.56 36.5953 45.6662 36.4253 45.7725 36.25C47.9825 36.3138 50.1128 35.7453 51.765 34.465ZM8.4575 41.5625L13.8125 59.54L8.7975 61.07L3.4425 43.135L8.4575 41.5625Z" fill="url(#paint0_linear_2_72)"/>
<defs>
<linearGradient id="paint0_linear_2_72" x1="34.0425" y1="0.847534" x2="34.0425" y2="64.4275" gradientUnits="userSpaceOnUse">
<stop stop-color="#FFC619"/>
<stop offset="0.520833" stop-color="#F69020"/>
<stop offset="1" stop-color="#EA422A"/>
</linearGradient>
</defs>
</svg>
