<svg width="21" height="21" viewBox="0 0 21 21" fill="none" xmlns="http://www.w3.org/2000/svg">
<path d="M10.08 0.971191L1.12878 4.23932C0.961433 4.28197 0.840027 4.4526 0.840027 4.61994V15.6187L10.08 12.3112V0.971191ZM10.92 0.971191V12.3112L13.44 13.1906V6.12932L17.22 7.52057V14.5293L20.16 15.5793V4.61994C20.16 4.4526 20.0386 4.28197 19.8713 4.23932L10.92 0.971191ZM7.56003 5.87994V10.1193L3.78003 11.5893V7.38932L7.56003 5.87994ZM10.5 13.0593L1.18128 16.3799L10.3688 20.1206C10.4114 20.1206 10.4557 20.1599 10.5394 20.1599C10.5821 20.1599 10.6674 20.1632 10.71 20.1206L19.8188 16.3799L10.5 13.0593Z" fill="white"/>
</svg>
