<svg width="26" height="27" viewBox="0 0 26 27" fill="none" xmlns="http://www.w3.org/2000/svg">
<path d="M5.71999 0C5.42755 0 5.12941 0.107144 4.91828 0.318281C4.70714 0.529418 4.59999 0.827556 4.59999 1.12V2.24H1.24C0.947551 2.24 0.649413 2.34714 0.438276 2.55828C0.227139 2.76942 0.119995 3.06756 0.119995 3.36V7.84V25.76C0.119995 26.0524 0.227139 26.3506 0.438276 26.5617C0.649413 26.7729 0.947551 26.88 1.24 26.88H24.76C25.0524 26.88 25.3506 26.7729 25.5617 26.5617C25.7728 26.3506 25.88 26.0524 25.88 25.76V7.84V3.36C25.88 3.06756 25.7728 2.76942 25.5617 2.55828C25.3506 2.34714 25.0524 2.24 24.76 2.24H21.4V1.12C21.4 0.827556 21.2928 0.529418 21.0817 0.318281C20.8706 0.107144 20.5724 0 20.28 0H19.16C18.8675 0 18.5694 0.107144 18.3583 0.318281C18.1471 0.529418 18.04 0.827556 18.04 1.12V2.24H7.95999V1.12C7.95999 0.827556 7.85285 0.529418 7.64171 0.318281C7.43058 0.107144 7.13244 0 6.83999 0H5.71999ZM5.71999 1.12H6.83999V4.48H5.71999V1.12ZM19.16 1.12H20.28V2.70594C20.27 2.76641 20.27 2.82812 20.28 2.88859V4.48H19.16V1.12ZM1.24 3.36H4.59999V4.48C4.59999 4.77244 4.70714 5.07058 4.91828 5.28172C5.12941 5.49286 5.42755 5.6 5.71999 5.6H6.83999C7.13244 5.6 7.43058 5.49286 7.64171 5.28172C7.85285 5.07058 7.95999 4.77244 7.95999 4.48V3.36H18.04V4.48C18.04 4.77244 18.1471 5.07058 18.3583 5.28172C18.5694 5.49286 18.8675 5.6 19.16 5.6H20.28C20.5724 5.6 20.8706 5.49286 21.0817 5.28172C21.2928 5.07058 21.4 4.77244 21.4 4.48V3.36H24.76V7.28H1.24V3.36ZM1.24 8.4H24.76V25.76H1.24V8.4ZM9.07124 10.6323C9.04448 10.633 9.0178 10.6355 8.9914 10.64H5.15999C5.01148 10.64 4.86905 10.699 4.76403 10.804C4.65901 10.9091 4.60001 11.0515 4.59999 11.2V15.0259C4.59 15.0864 4.59 15.1481 4.59999 15.2086V18.9459C4.59 19.0064 4.59 19.0681 4.59999 19.1286V22.96C4.60001 23.1085 4.65901 23.2509 4.76403 23.356C4.86905 23.461 5.01148 23.52 5.15999 23.52H8.98593C9.04641 23.53 9.10811 23.53 9.16859 23.52H12.9059C12.9664 23.53 13.0281 23.53 13.0886 23.52H15.8H16.8259C16.8864 23.53 16.9481 23.53 17.0086 23.52H20.84C20.9885 23.52 21.1309 23.461 21.236 23.356C21.341 23.2509 21.4 23.1085 21.4 22.96V19.1341C21.41 19.0736 21.41 19.0119 21.4 18.9514V15.2141C21.41 15.1536 21.41 15.0919 21.4 15.0314V11.2C21.4 11.0515 21.341 10.9091 21.236 10.804C21.1309 10.699 20.9885 10.64 20.84 10.64H17.0141C16.9536 10.63 16.8919 10.63 16.8314 10.64H13.0941C13.0336 10.63 12.9719 10.63 12.9114 10.64H9.17406C9.14009 10.6343 9.10568 10.6317 9.07124 10.6323ZM5.71999 11.76H8.51999V14.56H5.71999V11.76ZM9.63999 11.76H12.44V14.56H9.63999V11.76ZM13.56 11.76H16.36V14.56H13.56V11.76ZM17.48 11.76H20.28V14.56H17.48V11.76ZM5.71999 15.68H8.51999V18.48H5.71999V15.68ZM9.63999 15.68H12.44V18.48H9.63999V15.68ZM13.56 15.68H16.36V18.48H13.56V15.68ZM17.48 15.68H20.28V18.48H17.48V15.68ZM5.71999 19.6H8.51999V22.4H5.71999V19.6ZM9.63999 19.6H12.44V22.4H9.63999V19.6ZM13.56 19.6H16.36V22.4H15.8H13.56V19.6ZM17.48 19.6H20.28V22.4H17.48V19.6Z" fill="#606571"/>
</svg>
