<svg width="261" height="70" viewBox="0 0 261 70" fill="none" xmlns="http://www.w3.org/2000/svg">
<circle cx="35" cy="35" r="34.5" stroke="#282B32"/>
<path d="M38.5686 25.6032L29.5686 34.826L32.4314 37.6196L41.4314 28.3968L38.5686 25.6032ZM41.4314 41.6032L32.4314 32.3804L29.5686 35.174L38.5686 44.3968L41.4314 41.6032Z" fill="#606571"/>
<circle r="35" transform="matrix(-1 0 0 1 226 35)" fill="#2E3441"/>
<path d="M222.431 25.6032L231.431 34.826L228.569 37.6196L219.569 28.3968L222.431 25.6032ZM219.569 41.6032L228.569 32.3804L231.431 35.174L222.431 44.3968L219.569 41.6032Z" fill="#606571"/>
<path d="M107.208 27.68L103.248 29.192V31.712L106.512 30.488V41.528H103.248V44H112.128V41.528H109.224V27.68H107.208Z" fill="white"/>
<path d="M122.32 44L126.432 38.976V44H128.144V36.32H126.672L122.56 41.344V36.32H120.848V44H122.32ZM136.781 41.904C136.781 40.944 136.141 40.304 135.261 40.064C136.061 39.856 136.621 39.264 136.621 38.352C136.621 37.104 135.629 36.096 133.261 36.096C132.205 36.096 131.181 36.352 130.445 36.704V38.176C131.101 37.824 132.157 37.552 133.053 37.552C134.157 37.552 134.893 37.888 134.893 38.576C134.893 39.216 134.269 39.44 133.453 39.44H131.885V40.752H133.453C134.221 40.752 135.053 40.88 135.053 41.696C135.053 42.544 134.093 42.752 132.957 42.752C132.029 42.752 130.925 42.464 130.301 42.112V43.584C131.005 43.952 132.029 44.208 133.181 44.208C135.549 44.208 136.781 43.248 136.781 41.904ZM145.641 33.12L143.001 34.128V35.808L145.177 34.992V42.352H143.001V44H148.921V42.352H146.985V33.12H145.641ZM150.174 33.12V34.752H156.19L151.774 44H153.742L158.254 34.56V33.12H150.174Z" fill="#606571"/>
</svg>
